<svg xmlns="http://www.w3.org/2000/svg" viewBox="0 0 512 512">
  <defs>
    <linearGradient id="bg" x1="64" y1="42" x2="454" y2="476" gradientUnits="userSpaceOnUse">
      <stop stop-color="#91b79b"/>
      <stop offset="0.48" stop-color="#53735f"/>
      <stop offset="1" stop-color="#294637"/>
    </linearGradient>
    <radialGradient id="glow" cx="0" cy="0" r="1" gradientTransform="translate(385 107) rotate(132) scale(248)">
      <stop stop-color="#d7f1dc" stop-opacity=".55"/>
      <stop offset="1" stop-color="#d7f1dc" stop-opacity="0"/>
    </radialGradient>
    <linearGradient id="leaf" x1="153" y1="147" x2="363" y2="365" gradientUnits="userSpaceOnUse">
      <stop stop-color="#fff"/>
      <stop offset="1" stop-color="#e1f1e5"/>
    </linearGradient>
    <filter id="shadow" x="90" y="88" width="340" height="354" filterUnits="userSpaceOnUse">
      <feDropShadow dx="0" dy="18" stdDeviation="17" flood-color="#14261c" flood-opacity=".28"/>
    </filter>
  </defs>
  <rect width="512" height="512" fill="#294637"/>
  <rect width="512" height="512" rx="116" fill="url(#bg)"/>
  <rect x="10" y="10" width="492" height="492" rx="106" fill="url(#glow)"/>
  <path d="M78 377c67 34 140 52 218 45 58-5 105-23 143-51" fill="none" stroke="#fff" stroke-opacity=".08" stroke-width="28" stroke-linecap="round"/>
  <g filter="url(#shadow)">
    <path d="M137 286c52-104 125-151 241-143-13 119-75 204-194 211" fill="none" stroke="url(#leaf)" stroke-width="35" stroke-linecap="round" stroke-linejoin="round"/>
    <path d="M137 365c45-77 105-137 198-184" fill="none" stroke="#f1faf3" stroke-width="24" stroke-linecap="round"/>
  </g>
  <circle cx="405" cy="113" r="10" fill="#fff" fill-opacity=".72"/>
</svg>
